<mxfile host="65bd71144e">
    <diagram id="hODFeMn_RDrNl4lSQciS" name="Page-1">
        <mxGraphModel dx="406" dy="744" grid="0" gridSize="10" guides="1" tooltips="1" connect="1" arrows="1" fold="1" page="1" pageScale="1" pageWidth="827" pageHeight="1169" background="#ffffff" math="0" shadow="0">
            <root>
                <mxCell id="0"/>
                <mxCell id="1" parent="0"/>
                <mxCell id="25" value="Audio Transcription Streaming" style="rounded=0;whiteSpace=wrap;html=1;labelBackgroundColor=none;fontSize=14;fontColor=none;fillColor=none;strokeColor=#CC6600;verticalAlign=top;align=right;fontStyle=1" vertex="1" parent="1">
                    <mxGeometry x="29" y="406" width="786" height="371" as="geometry"/>
                </mxCell>
                <mxCell id="15" value="Audio Transcription Asynchronous" style="rounded=0;whiteSpace=wrap;html=1;labelBackgroundColor=none;fontSize=14;fontColor=none;fillColor=none;strokeColor=#CC6600;verticalAlign=top;align=right;fontStyle=1" vertex="1" parent="1">
                    <mxGeometry x="29" y="12" width="786" height="371" as="geometry"/>
                </mxCell>
                <mxCell id="4" style="edgeStyle=none;html=1;strokeWidth=3;strokeColor=#262626;startArrow=classic;startFill=1;endArrow=none;endFill=0;" edge="1" parent="1" source="3">
                    <mxGeometry relative="1" as="geometry">
                        <mxPoint x="100.74993896484375" y="200" as="targetPoint"/>
                    </mxGeometry>
                </mxCell>
                <mxCell id="5" value="Lambda URL endpoint&lt;br&gt;body : {audio: base64encoded}" style="edgeLabel;align=center;verticalAlign=middle;resizable=0;points=[];html=1;labelBackgroundColor=none;fontColor=#262626;" vertex="1" connectable="0" parent="4">
                    <mxGeometry x="0.1095" y="1" relative="1" as="geometry">
                        <mxPoint x="-33" y="17" as="offset"/>
                    </mxGeometry>
                </mxCell>
                <mxCell id="11" style="edgeStyle=none;html=1;fontColor=#262626;startArrow=none;startFill=0;endArrow=classic;endFill=1;strokeColor=#262626;strokeWidth=1;" edge="1" parent="1" source="3" target="7">
                    <mxGeometry relative="1" as="geometry"/>
                </mxCell>
                <mxCell id="13" style="edgeStyle=none;html=1;fontColor=#262626;startArrow=none;startFill=0;endArrow=classic;endFill=1;strokeColor=#262626;strokeWidth=1;" edge="1" parent="1" source="3" target="12">
                    <mxGeometry relative="1" as="geometry"/>
                </mxCell>
                <mxCell id="3" value="Lambda&lt;br&gt;Transcribe Async&lt;br&gt;" style="sketch=0;points=[[0,0,0],[0.25,0,0],[0.5,0,0],[0.75,0,0],[1,0,0],[0,1,0],[0.25,1,0],[0.5,1,0],[0.75,1,0],[1,1,0],[0,0.25,0],[0,0.5,0],[0,0.75,0],[1,0.25,0],[1,0.5,0],[1,0.75,0]];outlineConnect=0;fontColor=#232F3E;gradientColor=#F78E04;gradientDirection=north;fillColor=#D05C17;strokeColor=#ffffff;dashed=0;verticalLabelPosition=bottom;verticalAlign=top;align=center;html=1;fontSize=12;fontStyle=0;aspect=fixed;shape=mxgraph.aws4.resourceIcon;resIcon=mxgraph.aws4.lambda;" vertex="1" parent="1">
                    <mxGeometry x="240" y="160" width="80" height="80" as="geometry"/>
                </mxCell>
                <mxCell id="6" value="&lt;h1 style=&quot;font-size: 11px;&quot;&gt;pseudo-code&lt;/h1&gt;&lt;p style=&quot;font-size: 11px;&quot;&gt;&lt;/p&gt;&lt;ol style=&quot;font-size: 11px;&quot;&gt;&lt;li style=&quot;font-size: 11px;&quot;&gt;Decode Audio, Build a File&lt;/li&gt;&lt;li style=&quot;font-size: 11px;&quot;&gt;Copy to S3&lt;/li&gt;&lt;li style=&quot;font-size: 11px;&quot;&gt;Start Transcribe Job&lt;/li&gt;&lt;li style=&quot;font-size: 11px;&quot;&gt;Poll Job until finish&lt;/li&gt;&lt;li style=&quot;font-size: 11px;&quot;&gt;Get Results, Build response&lt;/li&gt;&lt;/ol&gt;&lt;p style=&quot;font-size: 11px;&quot;&gt;&lt;/p&gt;" style="text;html=1;strokeColor=none;fillColor=none;spacing=5;spacingTop=-20;whiteSpace=wrap;overflow=hidden;rounded=0;labelBackgroundColor=none;fontColor=#262626;fontSize=11;" vertex="1" parent="1">
                    <mxGeometry x="198" y="40" width="190" height="119" as="geometry"/>
                </mxCell>
                <mxCell id="7" value="S3 Bucket&lt;br&gt;audio.m4a&lt;br&gt;transcript.json" style="sketch=0;outlineConnect=0;fontColor=#232F3E;gradientColor=none;fillColor=#3F8624;strokeColor=none;dashed=0;verticalLabelPosition=bottom;verticalAlign=top;align=center;html=1;fontSize=12;fontStyle=0;aspect=fixed;pointerEvents=1;shape=mxgraph.aws4.bucket_with_objects;labelBackgroundColor=none;" vertex="1" parent="1">
                    <mxGeometry x="443" y="240" width="75" height="78" as="geometry"/>
                </mxCell>
                <mxCell id="14" style="edgeStyle=none;html=1;fontSize=11;fontColor=none;startArrow=none;startFill=0;endArrow=classic;endFill=1;strokeColor=#262626;strokeWidth=1;dashed=1;" edge="1" parent="1" source="12" target="7">
                    <mxGeometry relative="1" as="geometry"/>
                </mxCell>
                <mxCell id="12" value="Amazon Transcribe" style="sketch=0;points=[[0,0,0],[0.25,0,0],[0.5,0,0],[0.75,0,0],[1,0,0],[0,1,0],[0.25,1,0],[0.5,1,0],[0.75,1,0],[1,1,0],[0,0.25,0],[0,0.5,0],[0,0.75,0],[1,0.25,0],[1,0.5,0],[1,0.75,0]];outlineConnect=0;fontColor=#232F3E;gradientColor=#4AB29A;gradientDirection=north;fillColor=#116D5B;strokeColor=#ffffff;dashed=0;verticalLabelPosition=top;verticalAlign=bottom;align=center;html=1;fontSize=12;fontStyle=0;aspect=fixed;shape=mxgraph.aws4.resourceIcon;resIcon=mxgraph.aws4.transcribe;labelBackgroundColor=none;labelPosition=center;" vertex="1" parent="1">
                    <mxGeometry x="440" y="98" width="78" height="78" as="geometry"/>
                </mxCell>
                <mxCell id="16" style="edgeStyle=none;html=1;strokeWidth=3;strokeColor=#262626;startArrow=classic;startFill=1;endArrow=none;endFill=0;" edge="1" parent="1" source="20">
                    <mxGeometry relative="1" as="geometry">
                        <mxPoint x="100.74993896484375" y="594" as="targetPoint"/>
                    </mxGeometry>
                </mxCell>
                <mxCell id="17" value="Lambda URL endpoint&lt;br&gt;body : {audio: base64encoded}" style="edgeLabel;align=center;verticalAlign=middle;resizable=0;points=[];html=1;labelBackgroundColor=none;fontColor=#262626;" vertex="1" connectable="0" parent="16">
                    <mxGeometry x="0.1095" y="1" relative="1" as="geometry">
                        <mxPoint x="-33" y="17" as="offset"/>
                    </mxGeometry>
                </mxCell>
                <mxCell id="19" style="edgeStyle=none;html=1;fontColor=#262626;startArrow=none;startFill=0;endArrow=classic;endFill=1;strokeColor=#262626;strokeWidth=1;" edge="1" parent="1" source="20" target="24">
                    <mxGeometry relative="1" as="geometry">
                        <Array as="points">
                            <mxPoint x="303" y="595"/>
                        </Array>
                    </mxGeometry>
                </mxCell>
                <mxCell id="27" value="audio stream" style="edgeLabel;html=1;align=center;verticalAlign=middle;resizable=0;points=[];fontSize=14;fontColor=#080808;labelBackgroundColor=none;" vertex="1" connectable="0" parent="19">
                    <mxGeometry x="0.0997" y="2" relative="1" as="geometry">
                        <mxPoint x="2" y="-13" as="offset"/>
                    </mxGeometry>
                </mxCell>
                <mxCell id="20" value="Lambda&lt;br&gt;Transcribe Async" style="sketch=0;points=[[0,0,0],[0.25,0,0],[0.5,0,0],[0.75,0,0],[1,0,0],[0,1,0],[0.25,1,0],[0.5,1,0],[0.75,1,0],[1,1,0],[0,0.25,0],[0,0.5,0],[0,0.75,0],[1,0.25,0],[1,0.5,0],[1,0.75,0]];outlineConnect=0;fontColor=#232F3E;gradientColor=#F78E04;gradientDirection=north;fillColor=#D05C17;strokeColor=#ffffff;dashed=0;verticalLabelPosition=bottom;verticalAlign=top;align=center;html=1;fontSize=12;fontStyle=0;aspect=fixed;shape=mxgraph.aws4.resourceIcon;resIcon=mxgraph.aws4.lambda;" vertex="1" parent="1">
                    <mxGeometry x="240" y="554" width="80" height="80" as="geometry"/>
                </mxCell>
                <mxCell id="21" value="&lt;h1 style=&quot;font-size: 11px&quot;&gt;pseudo-code&lt;/h1&gt;&lt;p style=&quot;font-size: 11px&quot;&gt;&lt;/p&gt;&lt;ol style=&quot;font-size: 11px&quot;&gt;&lt;li style=&quot;font-size: 11px&quot;&gt;Decode Audio, Build a File&lt;/li&gt;&lt;li style=&quot;font-size: 11px&quot;&gt;convert to .flac using ffmeg&lt;/li&gt;&lt;li style=&quot;font-size: 11px&quot;&gt;Start transcribe streaming&lt;/li&gt;&lt;li style=&quot;font-size: 11px&quot;&gt;Send chunks of audio until finished&lt;/li&gt;&lt;li style=&quot;font-size: 11px&quot;&gt;Build Response&amp;nbsp;&lt;/li&gt;&lt;/ol&gt;&lt;p style=&quot;font-size: 11px&quot;&gt;&lt;/p&gt;" style="text;html=1;strokeColor=none;fillColor=none;spacing=5;spacingTop=-20;whiteSpace=wrap;overflow=hidden;rounded=0;labelBackgroundColor=none;fontColor=#262626;fontSize=11;" vertex="1" parent="1">
                    <mxGeometry x="567" y="515" width="236" height="119" as="geometry"/>
                </mxCell>
                <mxCell id="26" style="edgeStyle=none;html=1;exitX=0;exitY=0.75;exitDx=0;exitDy=0;exitPerimeter=0;entryX=1;entryY=0.75;entryDx=0;entryDy=0;entryPerimeter=0;dashed=1;fontSize=14;fontColor=none;startArrow=none;startFill=0;endArrow=classic;endFill=1;strokeColor=#262626;strokeWidth=1;" edge="1" parent="1" source="24" target="20">
                    <mxGeometry relative="1" as="geometry"/>
                </mxCell>
                <mxCell id="28" value="transcription" style="edgeLabel;html=1;align=center;verticalAlign=middle;resizable=0;points=[];fontSize=14;fontColor=#080808;labelBackgroundColor=none;" vertex="1" connectable="0" parent="26">
                    <mxGeometry x="-0.416" y="1" relative="1" as="geometry">
                        <mxPoint x="-30" y="11" as="offset"/>
                    </mxGeometry>
                </mxCell>
                <mxCell id="24" value="Amazon Transcribe" style="sketch=0;points=[[0,0,0],[0.25,0,0],[0.5,0,0],[0.75,0,0],[1,0,0],[0,1,0],[0.25,1,0],[0.5,1,0],[0.75,1,0],[1,1,0],[0,0.25,0],[0,0.5,0],[0,0.75,0],[1,0.25,0],[1,0.5,0],[1,0.75,0]];outlineConnect=0;fontColor=#232F3E;gradientColor=#4AB29A;gradientDirection=north;fillColor=#116D5B;strokeColor=#ffffff;dashed=0;verticalLabelPosition=top;verticalAlign=bottom;align=center;html=1;fontSize=12;fontStyle=0;aspect=fixed;shape=mxgraph.aws4.resourceIcon;resIcon=mxgraph.aws4.transcribe;labelBackgroundColor=none;labelPosition=center;" vertex="1" parent="1">
                    <mxGeometry x="459" y="556" width="78" height="78" as="geometry"/>
                </mxCell>
            </root>
        </mxGraphModel>
    </diagram>
</mxfile>